<svg width="81" height="23" viewBox="0 0 81 23" fill="none" xmlns="http://www.w3.org/2000/svg">
<path d="M5.8361 18.0417V5.40674H0.805664V2.47044H14.5046V5.40674H9.47418V18.0417H5.8361Z" fill="#5534DA"/>
<path d="M22.5015 18.0417V15.706L22.2769 15.1944V11.0124C22.2769 10.2709 22.0449 9.69255 21.5808 9.27732C21.1316 8.86209 20.4354 8.65447 19.4922 8.65447C18.8484 8.65447 18.2122 8.75828 17.5834 8.96589C16.9695 9.15868 16.4455 9.42562 16.0113 9.7667L14.7537 7.34203C15.4125 6.88231 16.206 6.52639 17.1342 6.27429C18.0624 6.02218 19.0057 5.89613 19.9638 5.89613C21.8053 5.89613 23.2351 6.32619 24.2532 7.18632C25.2712 8.04645 25.7803 9.38854 25.7803 11.2126V18.0417H22.5015ZM18.8185 18.2197C17.8753 18.2197 17.0668 18.064 16.3931 17.7525C15.7194 17.4263 15.2029 16.9888 14.8436 16.4401C14.4842 15.8914 14.3046 15.276 14.3046 14.5938C14.3046 13.882 14.4768 13.2591 14.8211 12.7252C15.1804 12.1914 15.7419 11.7761 16.5054 11.4795C17.269 11.1681 18.2646 11.0124 19.4922 11.0124H22.7036V13.0367H19.874C19.0506 13.0367 18.4816 13.1701 18.1672 13.4371C17.8678 13.704 17.7181 14.0377 17.7181 14.4381C17.7181 14.883 17.8903 15.2389 18.2346 15.5058C18.5939 15.7579 19.0805 15.884 19.6943 15.884C20.2782 15.884 20.8022 15.7505 21.2664 15.4836C21.7305 15.2018 22.0673 14.794 22.2769 14.2601L22.8159 15.8617C22.5614 16.6329 22.0973 17.2187 21.4236 17.6191C20.7498 18.0195 19.8815 18.2197 18.8185 18.2197Z" fill="#5534DA"/>
<path d="M32.5053 18.2197C31.4723 18.2197 30.4767 18.101 29.5185 17.8638C28.5753 17.6117 27.8267 17.3002 27.2728 16.9295L28.4406 14.4381C28.9945 14.7792 29.6458 15.0609 30.3944 15.2834C31.1579 15.491 31.9065 15.5948 32.6401 15.5948C33.4485 15.5948 34.0175 15.4984 34.3468 15.3056C34.6912 15.1128 34.8633 14.8459 34.8633 14.5048C34.8633 14.2231 34.7286 14.0154 34.4591 13.882C34.2046 13.7337 33.8603 13.6224 33.4261 13.5483C32.9919 13.4742 32.5128 13.4 31.9888 13.3259C31.4798 13.2517 30.9633 13.1553 30.4393 13.0367C29.9153 12.9032 29.4362 12.7104 29.002 12.4583C28.5678 12.2062 28.216 11.8651 27.9465 11.4351C27.692 11.005 27.5647 10.4489 27.5647 9.7667C27.5647 9.01038 27.7818 8.34304 28.216 7.76468C28.6651 7.18632 29.3089 6.73401 30.1473 6.40775C30.9857 6.06667 31.9888 5.89613 33.1566 5.89613C33.98 5.89613 34.8184 5.98511 35.6718 6.16306C36.5252 6.34102 37.2363 6.60054 37.8053 6.94163L36.6375 9.41079C36.0536 9.0697 35.4622 8.83984 34.8633 8.7212C34.2795 8.58773 33.7105 8.521 33.1566 8.521C32.3781 8.521 31.8092 8.62481 31.4498 8.83243C31.0905 9.04004 30.9109 9.30698 30.9109 9.63323C30.9109 9.92983 31.0381 10.1523 31.2926 10.3006C31.5621 10.4489 31.914 10.5675 32.3481 10.6565C32.7823 10.7455 33.2539 10.827 33.7629 10.9012C34.2869 10.9605 34.811 11.0569 35.335 11.1904C35.859 11.3238 36.3306 11.5166 36.7498 11.7687C37.1839 12.006 37.5358 12.3397 37.8053 12.7697C38.0747 13.185 38.2095 13.7337 38.2095 14.4158C38.2095 15.1573 37.9849 15.8173 37.5358 16.3956C37.0866 16.9592 36.4354 17.404 35.582 17.7303C34.7436 18.0566 33.718 18.2197 32.5053 18.2197Z" fill="#5534DA"/>
<path d="M42.7576 15.5948L42.8474 11.3683L48.4842 6.07408H52.6613L47.2491 11.524L45.43 12.9922L42.7576 15.5948ZM39.8606 18.0417V1.53617H43.3639V18.0417H39.8606ZM48.866 18.0417L44.7788 13.0144L46.9796 10.3228L53.1104 18.0417H48.866Z" fill="#5534DA"/>
<path d="M54.1755 18.0417V6.07408H57.6789V18.0417H54.1755ZM55.9272 4.40573C55.2834 4.40573 54.7594 4.22036 54.3552 3.84962C53.951 3.47887 53.7489 3.01915 53.7489 2.47044C53.7489 1.92174 53.951 1.46202 54.3552 1.09127C54.7594 0.720529 55.2834 0.535156 55.9272 0.535156C56.571 0.535156 57.095 0.713114 57.4992 1.06903C57.9035 1.41012 58.1056 1.85501 58.1056 2.40371C58.1056 2.98207 57.9035 3.46404 57.4992 3.84962C57.11 4.22036 56.586 4.40573 55.9272 4.40573Z" fill="#5534DA"/>
<path d="M60.8466 18.0417V5.80715C60.8466 4.45764 61.2508 3.38248 62.0593 2.58167C62.8677 1.76603 64.0205 1.35821 65.5177 1.35821C66.0267 1.35821 66.5133 1.41011 66.9774 1.51392C67.4565 1.61773 67.8607 1.78086 68.1901 2.00331L67.2694 4.51696C67.0747 4.38349 66.8576 4.27968 66.6181 4.20553C66.3786 4.13138 66.124 4.09431 65.8545 4.09431C65.3455 4.09431 64.9488 4.2426 64.6643 4.5392C64.3948 4.82097 64.2601 5.25103 64.2601 5.82939V6.94163L64.3499 8.43202V18.0417H60.8466ZM58.9826 9.01038V6.34102H67.3592V9.01038H58.9826Z" fill="#5534DA"/>
<path d="M70.3406 22.5352C69.7118 22.5352 69.0904 22.4388 68.4766 22.246C67.8628 22.0532 67.3612 21.7863 66.972 21.4452L68.252 18.976C68.5215 19.2133 68.8284 19.3987 69.1728 19.5321C69.5321 19.6656 69.8839 19.7323 70.2283 19.7323C70.7223 19.7323 71.1116 19.6137 71.396 19.3764C71.6955 19.154 71.965 18.7758 72.2045 18.2419L72.8333 16.7738L73.1028 16.3956L77.4371 6.07408H80.8057L75.3485 18.7758C74.9593 19.7397 74.5101 20.4961 74.0011 21.0448C73.507 21.5935 72.9531 21.979 72.3393 22.2015C71.7404 22.4239 71.0742 22.5352 70.3406 22.5352ZM72.4066 18.5089L67.0169 6.07408H70.6325L74.8096 16.0842L72.4066 18.5089Z" fill="#5534DA"/>
</svg>
