<svg width="200" height="281" viewBox="0 0 200 281" fill="none" xmlns="http://www.w3.org/2000/svg">
<g clip-path="url(#clip0_20775_35599)">
<path d="M199.968 17.5424C199.876 17.3902 199.661 17.2888 199.445 17.3395C197.568 17.9989 195.692 18.5569 193.753 19.1403C188.43 20.7636 182.892 21.8288 177.353 22.8941C171.015 24.0608 164.553 24.8978 158.245 26.1914C152.799 27.282 147.384 28.6009 142.153 30.3257C138.215 31.5938 134.338 32.9635 130.707 34.7136C126.399 36.6666 122.922 39.5834 119.538 42.4748C116.43 45.1634 113.292 47.8519 110.553 50.8195C109.015 52.4935 107.722 54.3197 106.492 56.1458C108.43 50.1093 111.138 44.022 116.092 39.2029C116.461 38.8225 116.03 38.3659 115.507 38.5688C114.245 39.0761 113.076 39.7356 111.876 40.3443C102.707 45.4678 94.5223 51.834 87.4761 58.8597C84.03 62.3346 80.7069 65.8855 77.9684 69.7661C74.7992 74.3062 72.3992 79.2014 70.6761 84.2487C70.4915 81.2558 70.7992 78.2629 71.2915 75.2954C71.3838 74.7627 71.4761 74.2555 71.5069 73.7228C71.5069 73.3677 71.63 72.8605 71.1992 72.6576C70.8915 72.5307 70.5838 72.6576 70.3684 72.8605C70.0915 73.0888 69.8761 73.3424 69.63 73.596C69.1377 74.1287 68.6454 74.6867 68.1838 75.2447C66.6454 77.0455 65.2607 78.9477 64.0607 80.9261C61.1069 85.9227 58.3992 90.9701 55.6608 96.0428C52.8915 101.116 50.3377 106.29 47.6608 111.388C45.1069 116.207 42.3069 120.95 39.4146 125.642C37.8454 128.153 36.2454 130.664 34.3684 133.048C33.5684 134.063 32.7377 135.052 31.8761 136.016C31.9992 135.813 32.1223 135.635 32.2454 135.433C34.7684 131.349 36.4915 126.986 38.0608 122.599C39.3531 119.783 40.6454 116.968 42.0915 114.229C43.7838 111.109 45.2915 107.938 46.7377 104.743C49.63 98.706 53.1377 92.9231 57.1377 87.3178C59.7223 83.6908 62.4915 80.1398 65.0146 76.4621C67.3838 73.0127 69.2607 69.3603 71.4146 65.8348C73.0146 63.1969 74.6454 60.5591 76.03 57.8452C76.43 57.0843 76.83 56.298 77.1992 55.5117C77.3531 55.1313 77.5377 54.7255 77.63 54.3197C77.63 54.1675 77.6608 53.9899 77.5377 53.8378C77.2607 53.4827 76.7069 53.6095 76.3684 53.8378C75.3838 54.4465 74.4607 55.0806 73.5069 55.74C70.43 57.8959 67.23 59.925 63.9377 61.8527C70.9838 54.8016 78.4915 47.5983 81.8761 38.721C82.1223 37.9601 82.7992 36.0578 82.1223 35.4238C81.6608 35.094 81.1377 35.5506 80.8607 35.8296C77.9992 38.7718 74.9838 41.6125 71.63 44.1742C72.9223 42.5002 74.1531 40.7755 75.2607 39C77.1069 35.9564 78.9223 32.8874 80.43 29.7169C82.2146 25.8363 83.5684 21.8542 84.9838 17.8975C86.43 13.5857 87.7223 9.22312 89.2915 4.93666C89.4454 4.53084 89.5992 4.12502 89.6915 3.69384C89.6915 3.56702 89.7531 3.41484 89.6915 3.28802C89.5992 3.05975 89.2607 2.90757 88.9838 2.98366C88.7377 3.03439 88.4915 3.16121 88.2761 3.31339C85.1377 5.7483 82.3377 8.46221 79.3223 10.9732C77.1069 12.8501 74.8607 14.7524 72.7377 16.7054C68.4607 20.7128 64.6454 25.0754 61.63 29.793C58.8915 34.0795 56.8915 38.721 55.6608 43.464C53.9992 49.6528 53.4454 55.9937 52.3992 62.2585C51.1992 59.5446 50.4915 56.6785 50.3377 53.7617C50.2761 52.7978 50.2146 51.7833 50.1531 50.7434C50.1531 50.2615 50.1531 49.2216 49.2608 49.4498C48.9838 49.5767 48.83 49.8303 48.6761 50.0839C48.3992 50.5405 48.1531 51.0224 47.9069 51.5043C47.1377 52.9754 46.2761 54.3957 45.4761 55.8415C43.1992 59.8997 41.23 64.11 40.2146 68.4979C39.3223 72.0996 38.8608 75.7773 38.8608 79.4297C38.8608 84.5531 39.8146 89.6005 39.7838 94.7493C38.0915 92.4919 36.3684 90.2092 35.6608 87.5714C35.2915 86.3286 35.0146 85.0858 34.7684 83.8429C34.7069 83.4878 34.6146 83.1074 34.5531 82.7523C34.4915 82.4987 34.4915 82.1689 34.2454 81.9914C33.6915 81.6363 33.3223 82.245 33.1992 82.6255C32.1531 85.3647 31.63 88.2562 31.5069 91.1477C31.3531 94.0645 31.6915 96.9813 32.03 99.8981C32.3377 102.536 32.6761 105.174 32.8915 107.837C32.7377 108.801 32.6761 109.765 32.5838 110.728C32.2146 115.471 31.5684 120.214 30.4608 124.881C29.7223 128.635 28.7684 132.338 27.1684 135.94C26.2454 138.502 25.0454 140.987 23.5377 143.346C23.2915 143.676 23.0761 144.031 22.8608 144.361C19.8761 148.748 17.1377 153.238 14.1223 157.6C12.3069 160.162 10.5531 162.775 8.92229 165.438C7.72229 167.162 6.6146 168.913 5.66076 170.713C4.82999 172.235 4.02999 173.782 3.29153 175.33C3.0146 175.989 2.2146 177.308 2.64537 177.967C3.29153 178.449 3.8146 177.815 4.2146 177.13C4.30691 177.054 4.39922 176.978 4.46076 176.902C4.70691 176.623 4.92229 176.344 5.10691 176.04C5.59922 175.355 6.09153 174.695 6.55306 174.036C8.58383 171.119 10.5531 168.177 12.5531 165.235C15.5377 160.669 18.7992 156.231 22.0915 151.792C22.6454 151.057 23.1684 150.321 23.7223 149.56C24.3992 148.748 25.0761 147.962 25.7838 147.151C27.0454 145.73 28.3992 144.361 29.8761 143.092C31.6915 141.444 33.9684 139.846 36.0915 138.451C39.1684 136.396 41.9377 134.063 44.6454 131.704C50.9531 126.048 56.8915 120.113 63.0454 114.33C67.1377 110.272 71.5377 106.366 76.2454 102.815C79.7223 100.405 83.3223 98.0973 86.9838 95.8907C92.83 92.4412 98.9838 89.3722 104.799 85.872C111.661 81.7377 118.368 77.4259 124.522 72.5815C124.707 72.4039 124.922 72.201 124.799 71.9474C124.676 71.6177 124.184 71.6684 123.845 71.7445C122.461 72.0488 121.138 72.5054 119.784 72.7844C118.399 73.038 116.984 73.2663 115.599 73.4692C111.815 74.0779 107.938 74.3316 104.092 74.3569C106.276 73.6721 108.492 73.0127 110.707 72.4039C116.215 71.0343 121.784 69.8676 127.168 68.1936C136.738 65.4797 145.107 60.6098 152.768 55.2581C154.645 53.9646 156.553 52.671 158.276 51.2253C158.584 50.9209 159.045 50.6419 159.107 50.2108C159.107 49.7035 158.368 49.7035 157.907 49.8049C153.599 50.5658 149.261 51.3014 144.892 51.6818C141.999 51.9101 138.984 52.0877 136.092 51.6565C139.445 50.8195 142.83 50.0839 146.276 49.5006C149.476 48.9679 152.707 48.4607 155.815 47.6744C160.645 46.5077 164.984 44.2249 168.676 41.4349C170.892 39.6848 172.953 37.8079 174.984 35.9057C177.138 33.8766 179.076 31.6953 181.353 29.7423C184.338 27.1552 187.599 24.7964 191.076 22.6912C193.661 21.0172 196.43 19.5968 199.292 18.2526C199.507 18.1511 199.722 18.1004 199.938 17.9989C200.122 17.8975 200.184 17.7199 200.092 17.5424H199.968ZM31.8146 138.045C31.8146 138.045 31.8146 138.045 31.7531 138.045H31.7838H31.8146ZM39.1684 110.779C41.5377 104.387 43.8146 97.9705 46.2761 91.6042C48.5838 85.0857 50.8915 78.5673 53.3223 72.0996C56.03 64.4397 58.1838 56.6531 61.0454 49.0187C63.0761 43.6416 65.3531 38.3152 67.9069 33.0903C70.2146 28.3727 72.7992 23.7311 76.3069 19.5208C73.4454 25.1261 70.4915 30.6808 67.9992 36.3876C65.5992 41.3842 63.5684 46.4823 61.8146 51.6565C57.5377 63.0955 54.9531 74.9149 50.83 86.3793C49.0761 91.452 47.1069 96.474 44.9838 101.471C43.4761 105.047 41.6915 108.623 40.2146 112.199C36.9223 120.138 33.8761 128.153 30.1223 135.965C30.0608 136.016 29.9992 136.067 29.9377 136.117C29.8146 136.092 29.6915 136.117 29.5992 136.143C30.2454 134.469 30.8608 132.769 31.3838 131.07C33.8761 124.273 36.6146 117.551 39.1684 110.779ZM131.661 48.4353C128.092 50.4644 124.522 52.4935 121.138 54.7001C115.507 58.4032 110.03 62.2331 104.584 66.1137C101.415 68.4472 98.5531 71.0597 95.5684 73.5707C92.6146 76.107 89.63 78.5927 86.83 81.2305C83.1069 84.6546 79.2915 88.0279 75.7223 91.5788C72.5838 94.6225 69.7223 97.869 66.8915 101.116C64.7992 103.424 62.6761 105.732 60.7069 108.116C58.3684 110.881 55.9377 113.569 53.5992 116.334C51.2608 119.124 48.9531 121.914 46.6761 124.729C45.23 126.505 43.7838 128.305 42.0915 129.954C40.0915 131.907 38.03 133.961 35.7531 135.762C34.8915 136.396 34.0608 137.03 33.23 137.69C33.23 137.69 33.23 137.69 33.1992 137.69C32.7992 137.614 32.7992 137.309 32.8915 137.056C34.5223 135.559 36.1531 134.088 37.7531 132.566C39.6915 130.715 41.4454 128.737 43.0761 126.707C51.7531 116.258 60.5223 105.833 69.8454 95.7385C73.3223 92.01 76.9223 88.3323 80.7992 84.8828C87.4761 79.0492 94.3684 73.4185 101.261 67.737C110.153 60.4323 119.63 53.5841 129.938 47.6744C138.153 43.1089 146.892 39.2029 155.907 35.8296C147.476 39.558 139.599 44.0981 131.661 48.4607V48.4353Z" fill="#5534DA"/>
<path d="M139.23 176.775C138.984 177.206 138.646 177.586 138.276 177.942C134.4 181.264 128.676 182.989 123.261 183.877C117.784 184.815 112.153 183.953 106.8 182.964C112.123 179.337 118.092 175.101 119.292 169.191C120.461 162.115 112.369 157.524 104.584 157.219C78.5534 156.509 55.0457 168.151 32.9841 178.221C24.6149 182 15.2918 186.844 5.35337 184.942C3.96876 184.612 2.55337 183.877 2.1226 182.659C2.15337 182.329 1.96876 181.949 1.56876 181.797C-1.50817 181.29 0.676449 184.866 2.09183 185.5C14.3072 191.257 31.2918 180.579 42.0918 175.963C53.2303 170.941 64.738 165.868 76.8611 162.597C86.9226 160.136 98.8303 157.397 109.2 159.705C114.492 160.973 118.615 165.539 116.923 170.104C114.8 175.38 109.292 179.108 104.153 182.406C96.0611 180.808 87.6611 179.058 79.2918 180.047C74.6765 180.732 69.3534 182.076 67.0457 185.728C63.4457 191.714 72.4611 192.881 77.6918 192.754C87.5072 192.5 96.8611 189.178 104.615 184.282C113.415 186.185 122.123 186.895 130.707 183.902C134.584 182.431 138.984 180.808 141.076 177.536C141.723 176.547 139.815 175.735 139.2 176.724L139.23 176.775ZM77.4149 191.055C74.5841 190.877 69.5995 191.207 68.3995 188.594C68.2149 185.297 72.6457 183.369 75.9688 182.532C84.4918 180.402 93.4764 182.177 101.907 183.801C94.7995 188.087 86.2765 190.852 77.4149 191.055Z" fill="#5534DA"/>
</g>
<path d="M13.2718 266.72V235.025H0.795898V227.66H34.7706V235.025H22.2946V266.72H13.2718Z" fill="#5534DA"/>
<path d="M54.6036 266.72V260.861L54.0467 259.577V249.087C54.0467 247.227 53.4711 245.776 52.3201 244.735C51.2061 243.693 49.4796 243.172 47.1403 243.172C45.5437 243.172 43.9656 243.433 42.4061 243.953C40.8838 244.437 39.5842 245.107 38.5074 245.962L35.3884 239.88C37.0222 238.727 38.9901 237.834 41.2922 237.202C43.5943 236.569 45.9336 236.253 48.3099 236.253C52.877 236.253 56.423 237.332 58.9479 239.489C61.4728 241.647 62.7353 245.014 62.7353 249.589V266.72H54.6036ZM45.4694 267.166C43.1302 267.166 41.1251 266.776 39.4542 265.994C37.7834 265.176 36.5023 264.079 35.6112 262.702C34.7201 261.326 34.2745 259.782 34.2745 258.071C34.2745 256.285 34.7015 254.723 35.5555 253.384C36.4466 252.044 37.8391 251.003 39.7327 250.259C41.6264 249.478 44.0956 249.087 47.1403 249.087H55.1049V254.165H48.0872C46.045 254.165 44.634 254.5 43.8542 255.169C43.1116 255.839 42.7403 256.676 42.7403 257.68C42.7403 258.796 43.1673 259.689 44.0213 260.359C44.9125 260.991 46.1192 261.307 47.6416 261.307C49.0897 261.307 50.3893 260.972 51.5403 260.303C52.6914 259.596 53.5268 258.573 54.0467 257.234L55.3834 261.251C54.7521 263.186 53.6011 264.655 51.9302 265.66C50.2593 266.664 48.1057 267.166 45.4694 267.166Z" fill="#5534DA"/>
<path d="M79.4141 267.166C76.852 267.166 74.3828 266.869 72.0065 266.273C69.6672 265.641 67.8107 264.86 66.4368 263.93L69.333 257.68C70.7069 258.536 72.3221 259.243 74.1786 259.801C76.0723 260.321 77.9288 260.582 79.7482 260.582C81.7533 260.582 83.1643 260.34 83.9811 259.856C84.8351 259.373 85.2622 258.703 85.2622 257.848C85.2622 257.141 84.928 256.62 84.2596 256.285C83.6284 255.913 82.7744 255.634 81.6976 255.448C80.6208 255.262 79.4326 255.076 78.133 254.89C76.8706 254.704 75.5896 254.462 74.29 254.165C72.9904 253.83 71.8022 253.346 70.7254 252.714C69.6487 252.082 68.7761 251.226 68.1077 250.147C67.4765 249.068 67.1609 247.673 67.1609 245.962C67.1609 244.065 67.6993 242.391 68.7761 240.94C69.89 239.489 71.4866 238.355 73.566 237.536C75.6453 236.681 78.133 236.253 81.0292 236.253C83.0714 236.253 85.1508 236.476 87.2672 236.923C89.3837 237.369 91.1474 238.02 92.5583 238.876L89.6621 245.069C88.2141 244.214 86.7474 243.637 85.2622 243.34C83.814 243.005 82.4031 242.837 81.0292 242.837C79.0984 242.837 77.6875 243.098 76.7963 243.619C75.9052 244.139 75.4596 244.809 75.4596 245.627C75.4596 246.371 75.7752 246.929 76.4065 247.301C77.0748 247.673 77.9474 247.971 79.0242 248.194C80.101 248.417 81.2706 248.622 82.533 248.808C83.8326 248.957 85.1322 249.199 86.4318 249.533C87.7314 249.868 88.901 250.352 89.9406 250.984C91.0174 251.579 91.89 252.416 92.5583 253.495C93.2267 254.537 93.5609 255.913 93.5609 257.624C93.5609 259.484 93.0039 261.14 91.89 262.591C90.7761 264.004 89.1609 265.12 87.0444 265.939C84.9651 266.757 82.4217 267.166 79.4141 267.166Z" fill="#5534DA"/>
<path d="M104.841 260.582L105.063 249.98L119.043 236.699H129.403L115.98 250.37L111.468 254.053L104.841 260.582ZM97.6558 266.72V225.316H106.344V266.72H97.6558ZM119.99 266.72L109.853 254.109L115.312 247.357L130.517 266.72H119.99Z" fill="#5534DA"/>
<path d="M133.158 266.72V236.699H141.847V266.72H133.158ZM137.503 232.514C135.906 232.514 134.606 232.049 133.604 231.119C132.601 230.189 132.1 229.036 132.1 227.66C132.1 226.283 132.601 225.13 133.604 224.2C134.606 223.27 135.906 222.805 137.503 222.805C139.099 222.805 140.399 223.252 141.401 224.144C142.404 225 142.905 226.116 142.905 227.492C142.905 228.943 142.404 230.152 141.401 231.119C140.436 232.049 139.136 232.514 137.503 232.514Z" fill="#5534DA"/>
<path d="M149.703 266.72V236.03C149.703 232.645 150.706 229.948 152.711 227.939C154.716 225.893 157.575 224.87 161.288 224.87C162.55 224.87 163.757 225 164.908 225.26C166.096 225.521 167.099 225.93 167.916 226.488L165.632 232.793C165.149 232.459 164.611 232.198 164.017 232.012C163.423 231.826 162.792 231.733 162.123 231.733C160.861 231.733 159.877 232.105 159.171 232.849C158.503 233.556 158.169 234.635 158.169 236.086V238.876L158.392 242.614V266.72H149.703ZM145.08 244.065V237.369H165.855V244.065H145.08Z" fill="#5534DA"/>
<path d="M173.249 277.991C171.689 277.991 170.149 277.75 168.626 277.266C167.104 276.782 165.86 276.113 164.895 275.257L168.069 269.063C168.738 269.659 169.499 270.124 170.353 270.458C171.244 270.793 172.116 270.961 172.97 270.961C174.196 270.961 175.161 270.663 175.867 270.068C176.609 269.51 177.278 268.561 177.872 267.222L179.431 263.539L180.1 262.591L190.849 236.699H199.203L185.669 268.561C184.704 270.979 183.59 272.876 182.327 274.253C181.102 275.629 179.728 276.596 178.206 277.154C176.721 277.712 175.068 277.991 173.249 277.991ZM178.373 267.892L165.006 236.699H173.973L184.332 261.809L178.373 267.892Z" fill="#5534DA"/>
<defs>
<clipPath id="clip0_20775_35599">
<rect width="200" height="189.796" fill="white" transform="translate(0 3.00879)"/>
</clipPath>
</defs>
</svg>
