<svg width="18" height="18" viewBox="0 0 18 18" fill="none" xmlns="http://www.w3.org/2000/svg">
<path d="M7.67244 10.3266H1.92282C1.5504 10.3266 1.23611 10.1985 0.979945 9.94237C0.723784 9.6862 0.595703 9.37192 0.595703 8.99952C0.595703 8.62712 0.723784 8.31284 0.979945 8.05668C1.23611 7.80052 1.5504 7.67244 1.92282 7.67244H7.67244V1.92282C7.67244 1.5504 7.80052 1.23611 8.05668 0.979945C8.31284 0.723784 8.62712 0.595703 8.99952 0.595703C9.37192 0.595703 9.6862 0.723784 9.94237 0.979945C10.1985 1.23611 10.3266 1.5504 10.3266 1.92282V7.67244H16.0762C16.4487 7.67244 16.7629 7.80052 17.0191 8.05668C17.2753 8.31284 17.4033 8.62712 17.4033 8.99952C17.4033 9.37192 17.2753 9.6862 17.0191 9.94237C16.7629 10.1985 16.4487 10.3266 16.0762 10.3266H10.3266V16.0762C10.3266 16.4487 10.1985 16.7629 9.94237 17.0191C9.6862 17.2753 9.37192 17.4033 8.99952 17.4033C8.62712 17.4033 8.31284 17.2753 8.05668 17.0191C7.80052 16.7629 7.67244 16.4487 7.67244 16.0762V10.3266Z" fill="#5534DA"/>
</svg>
