<svg width="14" height="16" viewBox="0 0 14 16" fill="none" xmlns="http://www.w3.org/2000/svg">
<path d="M1.98077 15.1256C1.60193 15.1256 1.28125 14.9943 1.01875 14.7318C0.75625 14.4693 0.625 14.1486 0.625 13.7698V3.73137C0.625 3.35252 0.75625 3.03184 1.01875 2.76934C1.28125 2.50684 1.60193 2.37559 1.98077 2.37559H3.01924V1.36596C3.01924 1.20155 3.07429 1.06429 3.18439 0.954194C3.29448 0.844106 3.43174 0.789062 3.59616 0.789062C3.76058 0.789062 3.89783 0.844106 4.00793 0.954194C4.11802 1.06429 4.17306 1.20155 4.17306 1.36596V2.37559H9.85574V1.35154C9.85574 1.19193 9.90958 1.05828 10.0173 0.950594C10.125 0.842906 10.2586 0.789062 10.4182 0.789062C10.5778 0.789062 10.7115 0.842906 10.8192 0.950594C10.9269 1.05828 10.9807 1.19193 10.9807 1.35154V2.37559H12.0192C12.398 2.37559 12.7187 2.50684 12.9812 2.76934C13.2437 3.03184 13.375 3.35252 13.375 3.73137V13.7698C13.375 14.1486 13.2437 14.4693 12.9812 14.7318C12.7187 14.9943 12.398 15.1256 12.0192 15.1256H1.98077ZM1.98077 14.0006H12.0192C12.0769 14.0006 12.1298 13.9765 12.1779 13.9285C12.2259 13.8804 12.25 13.8275 12.25 13.7698V6.73137H1.74998V13.7698C1.74998 13.8275 1.77402 13.8804 1.82209 13.9285C1.87018 13.9765 1.92308 14.0006 1.98077 14.0006ZM1.74998 5.60639H12.25V3.73137C12.25 3.67367 12.2259 3.62078 12.1779 3.57269C12.1298 3.52461 12.0769 3.50058 12.0192 3.50058H1.98077C1.92308 3.50058 1.87018 3.52461 1.82209 3.57269C1.77402 3.62078 1.74998 3.67367 1.74998 3.73137V5.60639Z" fill="#787486"/>
</svg>
