<svg width="20" height="20" viewBox="0 0 20 20" fill="none" xmlns="http://www.w3.org/2000/svg">
<path d="M8.48116 19.5C8.2568 19.5 8.06256 19.4246 7.89846 19.274C7.73436 19.1233 7.63565 18.9358 7.60231 18.7115L7.31194 16.4538C7.04399 16.3641 6.7693 16.2384 6.48789 16.0769C6.20647 15.9153 5.95486 15.7422 5.73306 15.5576L3.64461 16.4384C3.43051 16.532 3.21801 16.5429 3.00711 16.4711C2.79621 16.3993 2.6305 16.2647 2.50999 16.0673L1.00619 13.4481C0.892071 13.2506 0.856812 13.0397 0.900412 12.8154C0.943995 12.591 1.05617 12.4102 1.23694 12.2731L3.04464 10.9058C3.02155 10.757 3.0052 10.6077 2.99559 10.4577C2.98597 10.3077 2.98116 10.1583 2.98116 10.0096C2.98116 9.86728 2.98597 9.72273 2.99559 9.57593C3.0052 9.42913 3.02155 9.26855 3.04464 9.0942L1.23694 7.72688C1.05617 7.58971 0.942395 7.40894 0.895612 7.18458C0.848812 6.96023 0.885671 6.74934 1.00619 6.5519L2.50999 3.95195C2.6305 3.75452 2.79461 3.6199 3.00231 3.5481C3.21 3.4763 3.42089 3.4872 3.63499 3.5808L5.72344 4.45195C5.96447 4.26092 6.22185 4.08623 6.49556 3.9279C6.7693 3.76955 7.03821 3.6423 7.30231 3.54615L7.60231 1.28848C7.63565 1.06411 7.73436 0.876608 7.89846 0.725975C8.06256 0.575325 8.2568 0.5 8.48116 0.5H11.51C11.7343 0.5 11.9301 0.575325 12.0974 0.725975C12.2648 0.876608 12.3651 1.06411 12.3984 1.28848L12.6888 3.55578C12.9888 3.66474 13.2603 3.79198 13.5032 3.9375C13.7462 4.08302 13.9914 4.2545 14.2388 4.45195L16.3657 3.5808C16.5798 3.4872 16.7907 3.4747 16.9984 3.5433C17.2061 3.61188 17.3702 3.74489 17.4907 3.94233L18.9945 6.5519C19.1151 6.74934 19.1519 6.96023 19.1051 7.18458C19.0583 7.40894 18.9446 7.58971 18.7638 7.72688L16.9176 9.12303C16.9535 9.28458 16.9731 9.43554 16.9763 9.57593C16.9795 9.71631 16.9811 9.85766 16.9811 9.99998C16.9811 10.1359 16.9779 10.274 16.9715 10.4144C16.9651 10.5548 16.942 10.7154 16.9022 10.8962L18.7292 12.2731C18.9099 12.4102 19.0237 12.591 19.0705 12.8154C19.1173 13.0397 19.0805 13.2506 18.9599 13.4481L17.4561 16.0519C17.3356 16.2493 17.1673 16.3849 16.9513 16.4586C16.7353 16.5323 16.5202 16.5224 16.3061 16.4288L14.2388 15.548C13.9914 15.7455 13.7388 15.9201 13.4811 16.0721C13.2234 16.224 12.9593 16.348 12.6888 16.4442L12.3984 18.7115C12.3651 18.9358 12.2648 19.1233 12.0974 19.274C11.9301 19.4246 11.7343 19.5 11.51 19.5H8.48116ZM9.00036 18H10.9657L11.3254 15.3211C11.8356 15.1878 12.302 14.9984 12.7244 14.7529C13.1468 14.5074 13.5542 14.1917 13.9465 13.8058L16.4311 14.85L17.4157 13.15L15.2465 11.5154C15.3298 11.2564 15.3866 11.0025 15.4167 10.7538C15.4468 10.5051 15.4619 10.2538 15.4619 9.99998C15.4619 9.73973 15.4468 9.48844 15.4167 9.24613C15.3866 9.00383 15.3298 8.75639 15.2465 8.50383L17.435 6.84998L16.4504 5.14998L13.9369 6.2096C13.6023 5.8519 13.2013 5.53588 12.734 5.26153C12.2667 4.98716 11.7939 4.79293 11.3157 4.67883L11.0004 1.99998H9.01574L8.68499 4.6692C8.17472 4.78972 7.70356 4.97433 7.27151 5.22305C6.83946 5.47177 6.42729 5.79228 6.03499 6.1846L3.55036 5.14998L2.56574 6.84998L4.72536 8.4596C4.64203 8.69677 4.5837 8.94356 4.55036 9.19998C4.51703 9.45639 4.50036 9.72627 4.50036 10.0096C4.50036 10.2699 4.51703 10.525 4.55036 10.775C4.5837 11.025 4.63882 11.2718 4.71574 11.5154L2.56574 13.15L3.55036 14.85L6.02536 13.8C6.40485 14.1897 6.81061 14.509 7.24266 14.7577C7.67471 15.0064 8.15228 15.1974 8.67536 15.3308L9.00036 18ZM10.0119 13C10.8439 13 11.5519 12.708 12.1359 12.124C12.7199 11.54 13.0119 10.832 13.0119 9.99998C13.0119 9.16794 12.7199 8.45993 12.1359 7.87595C11.5519 7.29198 10.8439 7 10.0119 7C9.1696 7 8.45904 7.29198 7.88019 7.87595C7.30135 8.45993 7.01194 9.16794 7.01194 9.99998C7.01194 10.832 7.30135 11.54 7.88019 12.124C8.45904 12.708 9.1696 13 10.0119 13Z" fill="#787486"/>
</svg>
