<svg width="22" height="22" viewBox="0 0 22 22" fill="none" xmlns="http://www.w3.org/2000/svg">
<g clip-path="url(#clip0_38781_21481)">
<path d="M15.5832 21.0837H6.4165C4.95781 21.0837 3.55887 20.5042 2.52742 19.4727C1.49597 18.4413 0.916504 17.0423 0.916504 15.5837V6.41699C0.916504 4.9583 1.49597 3.55935 2.52742 2.5279C3.55887 1.49645 4.95781 0.916992 6.4165 0.916992H15.5832C17.0419 0.916992 18.4408 1.49645 19.4723 2.5279C20.5037 3.55935 21.0832 4.9583 21.0832 6.41699V15.5837C21.0832 17.0423 20.5037 18.4413 19.4723 19.4727C18.4408 20.5042 17.0419 21.0837 15.5832 21.0837ZM6.4165 2.75033C5.44404 2.75033 4.51141 3.13663 3.82378 3.82427C3.13615 4.5119 2.74984 5.44453 2.74984 6.41699V15.5837C2.74984 16.5561 3.13615 17.4887 3.82378 18.1764C4.51141 18.864 5.44404 19.2503 6.4165 19.2503H15.5832C16.5556 19.2503 17.4883 18.864 18.1759 18.1764C18.8635 17.4887 19.2498 16.5561 19.2498 15.5837V6.41699C19.2498 5.44453 18.8635 4.5119 18.1759 3.82427C17.4883 3.13663 16.5556 2.75033 15.5832 2.75033H6.4165Z" fill="#A39FB2"/>
<path d="M11 16.5C9.91221 16.5 8.84884 16.1774 7.94437 15.5731C7.0399 14.9687 6.33495 14.1098 5.91867 13.1048C5.50238 12.0998 5.39346 10.9939 5.60568 9.92701C5.8179 8.86011 6.34173 7.8801 7.11092 7.11092C7.8801 6.34173 8.86011 5.8179 9.92701 5.60568C10.9939 5.39346 12.0998 5.50238 13.1048 5.91867C14.1098 6.33495 14.9687 7.0399 15.5731 7.94437C16.1774 8.84884 16.5 9.91221 16.5 11C16.5 12.4587 15.9205 13.8576 14.8891 14.8891C13.8576 15.9205 12.4587 16.5 11 16.5ZM11 7.33334C10.2748 7.33334 9.56589 7.54838 8.96291 7.95128C8.35993 8.35418 7.88997 8.92683 7.61244 9.59683C7.33492 10.2668 7.26231 11.0041 7.40379 11.7153C7.54527 12.4266 7.89448 13.0799 8.40728 13.5927C8.92007 14.1055 9.57341 14.4547 10.2847 14.5962C10.9959 14.7377 11.7332 14.6651 12.4032 14.3876C13.0732 14.11 13.6458 13.6401 14.0487 13.0371C14.4516 12.4341 14.6667 11.7252 14.6667 11C14.6667 10.0275 14.2804 9.09491 13.5927 8.40728C12.9051 7.71964 11.9725 7.33334 11 7.33334Z" fill="#A39FB2"/>
<path d="M16.4997 5.50033C17.0059 5.50033 17.4163 5.08992 17.4163 4.58366C17.4163 4.0774 17.0059 3.66699 16.4997 3.66699C15.9934 3.66699 15.583 4.0774 15.583 4.58366C15.583 5.08992 15.9934 5.50033 16.4997 5.50033Z" fill="#A39FB2"/>
</g>
<defs>
<clipPath id="clip0_38781_21481">
<rect width="22" height="22" fill="white"/>
</clipPath>
</defs>
</svg>
