<svg width="189" height="61" viewBox="0 0 189 61" fill="none" xmlns="http://www.w3.org/2000/svg">
<g clip-path="url(#clip0_547_10966)">
<path d="M60.9085 10.2171C60.8878 10.1756 60.8393 10.1479 60.7909 10.1618C60.3688 10.3415 59.9466 10.4935 59.5107 10.6525C58.3135 11.0949 57.0678 11.3852 55.8222 11.6755C54.3966 11.9935 52.9434 12.2216 51.5248 12.5741C50.2999 12.8713 49.082 13.2307 47.9055 13.7007C47.0197 14.0464 46.1478 14.4196 45.3312 14.8965C44.3624 15.4288 43.5804 16.2237 42.8192 17.0116C42.1202 17.7443 41.4144 18.477 40.7985 19.2857C40.4525 19.7419 40.1618 20.2396 39.885 20.7372C40.321 19.0922 40.93 17.4333 42.0441 16.12C42.1272 16.0163 42.0303 15.8919 41.9126 15.9472C41.6289 16.0854 41.366 16.2651 41.0961 16.431C39.0338 17.8273 37.1931 19.5622 35.6084 21.4768C34.8333 22.4238 34.0859 23.3915 33.47 24.449C32.7572 25.6863 32.2175 27.0203 31.8299 28.3958C31.7884 27.5802 31.8576 26.7646 31.9683 25.9558C31.9891 25.8107 32.0099 25.6725 32.0168 25.5273C32.0168 25.4305 32.0445 25.2923 31.9476 25.237C31.8784 25.2024 31.8092 25.237 31.7607 25.2923C31.6985 25.3545 31.65 25.4236 31.5947 25.4927C31.4839 25.6379 31.3732 25.79 31.2694 25.942C30.9234 26.4328 30.612 26.9512 30.3421 27.4903C29.6778 28.852 29.0688 30.2275 28.4529 31.6099C27.8301 32.9923 27.2557 34.4024 26.6536 35.7917C26.0793 37.105 25.4495 38.3976 24.799 39.6763C24.4461 40.3606 24.0863 41.0449 23.6641 41.6946C23.4842 41.9711 23.2974 42.2407 23.1036 42.5033C23.1313 42.448 23.159 42.3997 23.1866 42.3444C23.7541 41.2315 24.1416 40.0426 24.4946 38.8469C24.7852 38.0796 25.0758 37.3124 25.4011 36.5659C25.7817 35.7157 26.1208 34.8517 26.446 33.9808C27.0965 32.3357 27.8854 30.7597 28.7851 29.2322C29.3664 28.2437 29.9892 27.2761 30.5566 26.2738C31.0895 25.3338 31.5116 24.3384 31.996 23.3776C32.3559 22.6588 32.7226 21.9399 33.0341 21.2003C33.124 20.993 33.214 20.7787 33.297 20.5644C33.3316 20.4608 33.3731 20.3502 33.3939 20.2396C33.3939 20.1981 33.4008 20.1497 33.3731 20.1082C33.3109 20.0115 33.1863 20.046 33.1102 20.1082C32.8887 20.2741 32.6811 20.4469 32.4666 20.6266C31.7746 21.2142 31.0549 21.7671 30.3144 22.2924C31.8991 20.3709 33.5877 18.4079 34.3489 15.9886C34.4042 15.7813 34.5565 15.2629 34.4042 15.0901C34.3004 15.0002 34.1828 15.1246 34.1205 15.2007C33.4769 16.0025 32.7988 16.7766 32.0445 17.4747C32.3351 17.0185 32.6119 16.5485 32.861 16.0647C33.2763 15.2352 33.6846 14.3989 34.0236 13.5349C34.425 12.4773 34.7295 11.3921 35.0478 10.3138C35.3731 9.13878 35.6637 7.9499 36.0167 6.78176C36.0513 6.67117 36.0859 6.56058 36.1066 6.44307C36.1066 6.40851 36.1205 6.36704 36.1066 6.33248C36.0859 6.27027 36.0097 6.2288 35.9474 6.24953C35.8921 6.26336 35.8367 6.29792 35.7883 6.33939C35.0824 7.00295 34.4527 7.74254 33.7745 8.42684C33.2763 8.93833 32.7711 9.45674 32.2936 9.98896C31.3317 11.0811 30.4736 12.2699 29.7954 13.5556C29.1795 14.7237 28.7297 15.9886 28.4529 17.2812C28.0792 18.9677 27.9546 20.6958 27.7194 22.403C27.4495 21.6635 27.2903 20.8824 27.2557 20.0875C27.2419 19.8248 27.228 19.5484 27.2142 19.265C27.2142 19.1336 27.2142 18.8502 27.0135 18.9124C26.9512 18.947 26.9166 19.0161 26.882 19.0852C26.8197 19.2097 26.7644 19.341 26.709 19.4723C26.536 19.8732 26.3422 20.2603 26.1623 20.6543C25.6502 21.7602 25.2073 22.9076 24.979 24.1034C24.7783 25.0849 24.6745 26.0872 24.6745 27.0825C24.6745 28.4788 24.889 29.8543 24.8821 31.2574C24.5015 30.6422 24.1139 30.0201 23.9548 29.3013C23.8717 28.9626 23.8095 28.6239 23.7541 28.2852C23.7403 28.1884 23.7195 28.0848 23.7057 27.988C23.6918 27.9189 23.6918 27.829 23.6364 27.7806C23.5119 27.6839 23.4288 27.8498 23.4012 27.9534C23.1659 28.6999 23.0482 29.4879 23.0206 30.2759C22.986 31.0708 23.0621 31.8657 23.1382 32.6606C23.2074 33.3794 23.2835 34.0983 23.332 34.824C23.2974 35.0867 23.2835 35.3493 23.2628 35.612C23.1797 36.9046 23.0344 38.1971 22.7853 39.4689C22.6192 40.4919 22.4047 41.5011 22.0448 42.4826C21.8372 43.1807 21.5673 43.8581 21.2282 44.5009C21.1729 44.5908 21.1244 44.6876 21.076 44.7774C20.4047 45.9732 19.7888 47.1966 19.1107 48.3855C18.7024 49.0836 18.3079 49.7956 17.9411 50.5213C17.6713 50.9914 17.4221 51.4683 17.2076 51.9591C17.0208 52.3738 16.8408 52.7954 16.6747 53.2171C16.6125 53.3968 16.4325 53.7562 16.5294 53.9359C16.6747 54.0672 16.7924 53.8944 16.8824 53.7078C16.9031 53.6871 16.9239 53.6663 16.9377 53.6456C16.9931 53.5696 17.0415 53.4935 17.083 53.4106C17.1938 53.224 17.3045 53.0443 17.4083 52.8645C17.865 52.0696 18.3079 51.2678 18.7577 50.466C19.429 49.2219 20.1625 48.0123 20.903 46.8026C21.0275 46.6022 21.1452 46.4017 21.2697 46.1944C21.422 45.9732 21.5742 45.7589 21.7334 45.5377C22.0171 45.1507 22.3216 44.7774 22.6538 44.4318C23.0621 43.9825 23.5742 43.5471 24.0517 43.1669C24.7437 42.607 25.3665 41.9711 25.9755 41.3283C27.3941 39.7869 28.7297 38.1695 30.1137 36.5935C31.0341 35.4876 32.0237 34.4231 33.0825 33.4554C33.8645 32.7988 34.6741 32.1698 35.4976 31.5684C36.8125 30.6284 38.1965 29.792 39.5044 28.8382C41.0476 27.7115 42.5562 26.5365 43.9403 25.2163C43.9818 25.1679 44.0302 25.1126 44.0025 25.0435C43.9749 24.9536 43.8641 24.9674 43.788 24.9882C43.4766 25.0711 43.179 25.1955 42.8745 25.2716C42.5631 25.3407 42.2448 25.4029 41.9334 25.4582C41.0822 25.6241 40.2103 25.6932 39.3453 25.7001C39.8366 25.5135 40.3348 25.3338 40.8331 25.1679C42.0718 24.7946 43.3244 24.4767 44.5354 24.0205C46.6876 23.2809 48.5699 21.9538 50.293 20.4953C50.7151 20.1428 51.1442 19.7903 51.5317 19.3963C51.6009 19.3133 51.7047 19.2373 51.7185 19.1198C51.7185 18.9816 51.5525 18.9816 51.4487 19.0092C50.4798 19.2166 49.5041 19.417 48.5214 19.5207C47.8709 19.5829 47.1927 19.6313 46.5422 19.5138C47.2965 19.2857 48.0578 19.0852 48.8328 18.9263C49.5525 18.7811 50.2791 18.6429 50.9781 18.4286C52.0645 18.1106 53.0403 17.4886 53.8707 16.7282C54.369 16.2513 54.8326 15.7398 55.2894 15.2214C55.7738 14.6684 56.2097 14.074 56.7218 13.5418C57.3931 12.8367 58.1266 12.1939 58.9086 11.6202C59.4899 11.164 60.1127 10.7769 60.7563 10.4106C60.8047 10.383 60.8532 10.3691 60.9016 10.3415C60.9431 10.3138 60.957 10.2654 60.9362 10.2171H60.9085ZM23.0898 43.0563C23.0898 43.0563 23.0898 43.0563 23.0759 43.0563H23.0828H23.0898ZM24.7437 35.6258C25.2765 33.884 25.7886 32.1352 26.3422 30.4003C26.8613 28.6239 27.3803 26.8475 27.927 25.0849C28.5359 22.9975 29.0203 20.8755 29.6639 18.7949C30.1207 17.3296 30.6328 15.878 31.2071 14.4542C31.7261 13.1685 32.3074 11.9036 33.0963 10.7562C32.4528 12.2838 31.7884 13.7975 31.2279 15.3527C30.6881 16.7144 30.2314 18.1037 29.8369 19.5138C28.875 22.6311 28.2937 25.8522 27.3664 28.9764C26.972 30.3588 26.5291 31.7274 26.0516 33.0891C25.7125 34.0637 25.3111 35.0383 24.979 36.0129C24.2385 38.1764 23.5534 40.3606 22.7091 42.4895C22.6953 42.5033 22.6815 42.5172 22.6676 42.531C22.6399 42.5241 22.6123 42.531 22.5915 42.5379C22.7368 42.0817 22.8752 41.6186 22.9929 41.1555C23.5534 39.3031 24.1693 37.4714 24.7437 35.6258V35.6258ZM45.5457 18.636C44.743 19.1889 43.9403 19.7419 43.179 20.3432C41.9126 21.3524 40.6809 22.3961 39.456 23.4537C38.7432 24.0896 38.0996 24.8015 37.4284 25.4858C36.764 26.177 36.0928 26.8544 35.463 27.5733C34.6257 28.5064 33.7676 29.4257 32.9649 30.3934C32.259 31.2228 31.6154 32.1076 30.9788 32.9923C30.5082 33.6213 30.0307 34.2503 29.5878 34.9001C29.0619 35.6535 28.5152 36.3862 27.9892 37.1396C27.4633 37.8999 26.9443 38.6602 26.4322 39.4275C26.107 39.9113 25.7817 40.4021 25.4011 40.8514C24.9513 41.3836 24.4876 41.9435 23.9755 42.4342C23.7818 42.607 23.5949 42.7798 23.4081 42.9595C23.4081 42.9595 23.4081 42.9595 23.4012 42.9595C23.3112 42.9388 23.3112 42.8559 23.332 42.7867C23.6987 42.3789 24.0655 41.978 24.4254 41.5633C24.8613 41.0587 25.2558 40.5196 25.6225 39.9666C27.574 37.1188 29.5463 34.278 31.6431 31.527C32.4251 30.5109 33.2347 29.5086 34.1067 28.5686C35.6084 26.9788 37.1585 25.4444 38.7086 23.896C40.7085 21.9054 42.8399 20.0391 45.1582 18.4286C47.0059 17.1844 48.9712 16.12 50.9988 15.2007C49.1027 16.2167 47.3311 17.454 45.5457 18.6429V18.636Z" fill="black"/>
<path d="M47.2487 53.6111C47.1934 53.7286 47.1173 53.8323 47.0342 53.929C46.1623 54.8345 44.8751 55.3045 43.6572 55.5465C42.4254 55.8022 41.159 55.5672 39.9549 55.2976C41.1521 54.3092 42.4946 53.1549 42.7645 51.5444C43.0274 49.6159 41.2074 48.3648 39.4566 48.2819C33.6022 48.0883 28.3151 51.261 23.3534 54.0051C21.4711 55.035 19.3743 56.3552 17.139 55.8368C16.8276 55.7469 16.5093 55.5465 16.4124 55.2147C16.4193 55.1248 16.3778 55.0211 16.2879 54.9797C15.5958 54.8414 16.0872 55.816 16.4055 55.9888C19.1528 57.5579 22.9728 54.6479 25.4017 53.3899C27.9068 52.0213 30.495 50.6389 33.2215 49.7472C35.4844 49.0768 38.1625 48.3303 40.4947 48.9593C41.6849 49.3049 42.6122 50.549 42.2316 51.7932C41.7541 53.2309 40.5154 54.247 39.3597 55.1456C37.5397 54.7101 35.6505 54.2332 33.7682 54.5027C32.7302 54.6894 31.533 55.0557 31.014 56.051C30.2043 57.6823 32.232 58.0002 33.4084 57.9657C35.6159 57.8966 37.7197 56.9911 39.4635 55.6571C41.4427 56.1755 43.4011 56.369 45.3319 55.5534C46.2038 55.1525 47.1934 54.7101 47.664 53.8184C47.8093 53.5489 47.3802 53.3277 47.2418 53.5973L47.2487 53.6111ZM33.3461 57.5026C32.7094 57.4542 31.5884 57.5441 31.3185 56.8321C31.277 55.9335 32.2735 55.4082 33.0209 55.1801C34.9377 54.5995 36.9584 55.0834 38.8546 55.5257C37.256 56.6939 35.3391 57.4473 33.3461 57.5026V57.5026Z" fill="black"/>
</g>
<path d="M68.7748 46.1516V26.3892H60.9174V21.7965H82.3149V26.3892H74.4574V46.1516H68.7748Z" fill="black"/>
<path d="M94.8059 46.1516V42.4983L94.4551 41.6981V35.157C94.4551 33.9973 94.0927 33.0926 93.3677 32.4432C92.6662 31.7937 91.5787 31.469 90.1055 31.469C89.0999 31.469 88.106 31.6313 87.1238 31.9561C86.165 32.2576 85.3466 32.6751 84.6684 33.2086L82.704 29.4162C83.733 28.6971 84.9724 28.1404 86.4223 27.7461C87.8722 27.3518 89.3454 27.1546 90.8421 27.1546C93.7185 27.1546 95.9518 27.8273 97.542 29.1726C99.1322 30.518 99.9273 32.6171 99.9273 35.4702V46.1516H94.8059ZM89.0531 46.4299C87.5799 46.4299 86.317 46.1864 85.2647 45.6993C84.2124 45.189 83.4056 44.5047 82.8443 43.6465C82.2831 42.7883 82.0025 41.8257 82.0025 40.7587C82.0025 39.6453 82.2714 38.6711 82.8093 37.8361C83.3705 37.0011 84.2474 36.3516 85.4401 35.8877C86.6327 35.4006 88.1879 35.157 90.1055 35.157H95.1216V38.3232H90.7018C89.4156 38.3232 88.527 38.5319 88.0359 38.9495C87.5682 39.367 87.3343 39.8889 87.3343 40.5151C87.3343 41.211 87.6032 41.7677 88.1411 42.1852C88.7023 42.5795 89.4624 42.7767 90.4212 42.7767C91.3332 42.7767 92.1517 42.5679 92.8766 42.1504C93.6016 41.7097 94.1277 41.0718 94.4551 40.2368L95.297 42.7419C94.8994 43.948 94.1745 44.8643 93.1222 45.4905C92.0698 46.1168 90.7135 46.4299 89.0531 46.4299Z" fill="black"/>
<path d="M110.432 46.4299C108.818 46.4299 107.263 46.2444 105.766 45.8733C104.293 45.4789 103.124 44.9918 102.259 44.412L104.083 40.5151C104.948 41.0486 105.965 41.4893 107.134 41.8373C108.327 42.162 109.496 42.3244 110.642 42.3244C111.905 42.3244 112.794 42.1736 113.308 41.8721C113.846 41.5705 114.115 41.153 114.115 40.6195C114.115 40.1788 113.904 39.8541 113.484 39.6453C113.086 39.4134 112.548 39.2394 111.87 39.1234C111.192 39.0074 110.443 38.8915 109.625 38.7755C108.83 38.6595 108.023 38.5087 107.205 38.3232C106.386 38.1144 105.638 37.8129 104.96 37.4186C104.281 37.0242 103.732 36.4908 103.311 35.8181C102.913 35.1454 102.715 34.2756 102.715 33.2086C102.715 32.0257 103.054 30.9819 103.732 30.0772C104.433 29.1726 105.439 28.4652 106.749 27.9549C108.058 27.4214 109.625 27.1546 111.449 27.1546C112.735 27.1546 114.045 27.2938 115.378 27.5722C116.711 27.8505 117.821 28.2564 118.71 28.7899L116.886 32.6519C115.974 32.1184 115.05 31.7589 114.115 31.5733C113.203 31.3646 112.314 31.2602 111.449 31.2602C110.233 31.2602 109.344 31.4226 108.783 31.7473C108.222 32.072 107.941 32.4896 107.941 32.9999C107.941 33.4638 108.14 33.8117 108.538 34.0436C108.958 34.2756 109.508 34.4612 110.186 34.6003C110.864 34.7395 111.601 34.8671 112.396 34.9831C113.215 35.0758 114.033 35.2266 114.852 35.4354C115.67 35.6441 116.407 35.9457 117.061 36.34C117.74 36.7111 118.289 37.233 118.71 37.9057C119.131 38.5551 119.342 39.4134 119.342 40.4803C119.342 41.6401 118.991 42.6723 118.289 43.5769C117.588 44.4583 116.57 45.1542 115.237 45.6645C113.928 46.1748 112.326 46.4299 110.432 46.4299Z" fill="black"/>
<path d="M126.446 42.3244L126.586 35.7137L135.39 27.433H141.915L133.461 35.9573L130.62 38.2536L126.446 42.3244ZM121.921 46.1516V20.3352H127.393V46.1516H121.921ZM135.987 46.1516L129.603 38.2884L133.04 34.0784L142.617 46.1516H135.987Z" fill="black"/>
<path d="M144.28 46.1516V27.433H149.752V46.1516H144.28ZM147.016 24.8235C146.011 24.8235 145.192 24.5336 144.561 23.9537C143.929 23.3738 143.614 22.6547 143.614 21.7965C143.614 20.9383 143.929 20.2192 144.561 19.6394C145.192 19.0595 146.011 18.7695 147.016 18.7695C148.022 18.7695 148.84 19.0479 149.472 19.6046C150.103 20.1381 150.419 20.8339 150.419 21.6921C150.419 22.5968 150.103 23.3506 149.472 23.9537C148.864 24.5336 148.045 24.8235 147.016 24.8235Z" fill="black"/>
<path d="M154.7 46.1516V27.0155C154.7 24.9047 155.332 23.223 156.594 21.9705C157.857 20.6947 159.658 20.0569 161.996 20.0569C162.792 20.0569 163.552 20.1381 164.277 20.3004C165.025 20.4628 165.656 20.7179 166.171 21.0659L164.733 24.9975C164.429 24.7887 164.089 24.6263 163.715 24.5104C163.341 24.3944 162.944 24.3364 162.523 24.3364C161.728 24.3364 161.108 24.5684 160.664 25.0323C160.243 25.473 160.032 26.1456 160.032 27.0503V28.7899L160.172 31.121V46.1516H154.7ZM151.789 32.0257V27.8505H164.873V32.0257H151.789Z" fill="black"/>
<path d="M169.53 53.1798C168.548 53.1798 167.577 53.029 166.618 52.7275C165.659 52.4259 164.876 52.0084 164.268 51.4749L166.267 47.6129C166.688 47.984 167.168 48.274 167.706 48.4827C168.267 48.6915 168.816 48.7959 169.354 48.7959C170.126 48.7959 170.734 48.6103 171.178 48.2392C171.646 47.8913 172.067 47.2998 172.441 46.4647L173.423 44.1684L173.844 43.5769L180.614 27.433H185.876L177.352 47.2998C176.744 48.8075 176.043 49.9904 175.247 50.8487C174.476 51.7069 173.61 52.31 172.652 52.6579C171.716 53.0058 170.676 53.1798 169.53 53.1798ZM172.757 46.8823L164.338 27.433H169.986L176.51 43.0898L172.757 46.8823Z" fill="black"/>
<defs>
<clipPath id="clip0_547_10966">
<rect width="44.9812" height="51.723" fill="white" transform="translate(15.9355 6.25586)"/>
</clipPath>
</defs>
</svg>
